<svg width="34" height="34" viewBox="0 0 34 34" fill="none" xmlns="http://www.w3.org/2000/svg">
<g clip-path="url(#clip0_278_88)">
<path fill-rule="evenodd" clip-rule="evenodd" d="M13.9109 23.4721C14.1809 23.7321 14.6175 23.7321 14.8869 23.4721L20.5955 17.9628C20.7233 17.8413 20.8251 17.6952 20.8946 17.5332C20.9641 17.3712 21 17.1967 21 17.0204C21 16.8442 20.9641 16.6697 20.8946 16.5077C20.8251 16.3457 20.7233 16.1995 20.5955 16.0781L14.8455 10.5281C14.715 10.4041 14.5422 10.3344 14.3622 10.3331C14.1821 10.3319 14.0084 10.3992 13.8762 10.5214C13.8107 10.5818 13.7583 10.655 13.7222 10.7364C13.6862 10.8178 13.6672 10.9058 13.6665 10.9948C13.6658 11.0839 13.6834 11.1722 13.7182 11.2541C13.753 11.3361 13.8043 11.4101 13.8689 11.4714L19.1315 16.5494C19.1955 16.6102 19.2464 16.6833 19.2812 16.7643C19.316 16.8453 19.3339 16.9326 19.3339 17.0208C19.3339 17.109 19.316 17.1962 19.2812 17.2772C19.2464 17.3583 19.1955 17.4314 19.1315 17.4921L13.9109 22.5301C13.8469 22.5908 13.796 22.6638 13.7612 22.7448C13.7264 22.8258 13.7085 22.913 13.7085 23.0011C13.7085 23.0892 13.7264 23.1764 13.7612 23.2574C13.796 23.3384 13.8469 23.4114 13.9109 23.4721Z" fill="#1A2634"/>
</g>
<circle cx="17.0001" cy="17" r="16.3333" stroke="#1A2634" stroke-width="0.666667"/>
<defs>
<clipPath id="clip0_278_88">
<rect width="7.33333" height="13.3333" fill="white" transform="translate(13.6667 10.3333)"/>
</clipPath>
</defs>
</svg>
