<svg width="34" height="34" viewBox="0 0 34 34" fill="none" xmlns="http://www.w3.org/2000/svg">
<g clip-path="url(#clip0_278_92)">
<path fill-rule="evenodd" clip-rule="evenodd" d="M20.0894 23.4721C19.8194 23.7321 19.3827 23.7321 19.1134 23.4721L13.4047 17.9628C13.2769 17.8413 13.1752 17.6952 13.1057 17.5332C13.0361 17.3712 13.0003 17.1967 13.0003 17.0204C13.0003 16.8442 13.0361 16.6697 13.1057 16.5077C13.1752 16.3457 13.2769 16.1995 13.4047 16.0781L19.1547 10.5281C19.2852 10.4041 19.458 10.3344 19.6381 10.3331C19.8181 10.3319 19.9919 10.3992 20.1241 10.5214C20.1895 10.5818 20.2419 10.655 20.278 10.7364C20.3141 10.8178 20.333 10.9058 20.3337 10.9948C20.3344 11.0839 20.3168 11.1722 20.282 11.2541C20.2472 11.3361 20.1959 11.4101 20.1314 11.4714L14.8687 16.5494C14.8048 16.6102 14.7539 16.6833 14.7191 16.7643C14.6843 16.8453 14.6663 16.9326 14.6663 17.0208C14.6663 17.109 14.6843 17.1962 14.7191 17.2772C14.7539 17.3583 14.8048 17.4314 14.8687 17.4921L20.0894 22.5301C20.1533 22.5908 20.2042 22.6638 20.239 22.7448C20.2738 22.8258 20.2917 22.913 20.2917 23.0011C20.2917 23.0892 20.2738 23.1764 20.239 23.2574C20.2042 23.3384 20.1533 23.4114 20.0894 23.4721Z" fill="#1A2634"/>
</g>
<circle cx="16" cy="16" r="16.3333" transform="matrix(-1 0 0 1 33.0001 1)" stroke="#1A2634" stroke-width="0.666667"/>
<defs>
<clipPath id="clip0_278_92">
<rect width="7.33333" height="13.3333" fill="white" transform="matrix(-1 0 0 1 20.3335 10.3333)"/>
</clipPath>
</defs>
</svg>
