<svg width="24" height="24" viewBox="0 0 24 24" fill="none" xmlns="http://www.w3.org/2000/svg">
<mask id="mask0_410_179" style="mask-type:alpha" maskUnits="userSpaceOnUse" x="0" y="0" width="24" height="24">
<rect width="24" height="24" fill="#D9D9D9"/>
</mask>
<g mask="url(#mask0_410_179)">
<path d="M11.25 8.10743L7.92689 11.4305C7.78844 11.569 7.6144 11.6398 7.40479 11.643C7.19519 11.6462 7.01795 11.5754 6.87309 11.4305C6.7282 11.2857 6.65576 11.11 6.65576 10.9036C6.65576 10.6972 6.7282 10.5216 6.87309 10.3767L11.3673 5.88248C11.5481 5.70171 11.759 5.61133 12 5.61133C12.241 5.61133 12.4519 5.70171 12.6327 5.88248L17.1269 10.3767C17.2654 10.5152 17.3362 10.6892 17.3394 10.8988C17.3426 11.1084 17.2718 11.2857 17.1269 11.4305C16.982 11.5754 16.8064 11.6478 16.6 11.6478C16.3936 11.6478 16.218 11.5754 16.0731 11.4305L12.75 8.10743V16.9036C12.75 17.1164 12.6782 17.2946 12.5346 17.4382C12.391 17.5818 12.2128 17.6536 12 17.6536C11.7872 17.6536 11.609 17.5818 11.4654 17.4382C11.3218 17.2946 11.25 17.1164 11.25 16.9036V8.10743Z" fill="white"/>
</g>
</svg>
